solid test
facet normal 0.0 0.0 1.0
outer loop
vertex 0.5748 0.0 0.4794
vertex 0.0 0.7699999999999999 0.4794
vertex 0.0 0.0 0.4794
endloop
endfacet
facet normal 0.0 0.0 1.0
outer loop
vertex 0.0 0.7699999999999999 0.4794
vertex 0.5748 0.0 0.4794
vertex 0.5748 0.7699999999999999 0.4794
endloop
endfacet
facet normal 0.0 -1.0 0.0
outer loop
vertex 0.5748 0.0 0.4794
vertex 0.0 0.0 0.0
vertex 0.5748 0.0 0.0
endloop
endfacet
facet normal 0.0 -1.0 0.0
outer loop
vertex 0.0 0.0 0.0
vertex 0.5748 0.0 0.4794
vertex 0.0 0.0 0.4794
endloop
endfacet
facet normal 0.0 1.0 0.0
outer loop
vertex 0.0 0.7699999999999999 0.4794
vertex 0.5748 0.7699999999999999 0.0
vertex 0.0 0.7699999999999999 0.0
endloop
endfacet
facet normal 0.0 1.0 0.0
outer loop
vertex 0.5748 0.7699999999999999 0.0
vertex 0.0 0.7699999999999999 0.4794
vertex 0.5748 0.7699999999999999 0.4794
endloop
endfacet
facet normal 1.0 -0.0 0.0
outer loop
vertex 0.5748 0.7699999999999999 0.0
vertex 0.5748 0.0 0.4794
vertex 0.5748 0.0 0.0
endloop
endfacet
facet normal 1.0 -0.0 0.0
outer loop
vertex 0.5748 0.0 0.4794
vertex 0.5748 0.7699999999999999 0.0
vertex 0.5748 0.7699999999999999 0.4794
endloop
endfacet
facet normal 0.0 0.0 -1.0
outer loop
vertex 0.5748 0.7699999999999999 0.0
vertex 0.0 0.0 0.0
vertex 0.0 0.7699999999999999 0.0
endloop
endfacet
facet normal 0.0 0.0 -1.0
outer loop
vertex 0.0 0.0 0.0
vertex 0.5748 0.7699999999999999 0.0
vertex 0.5748 0.0 0.0
endloop
endfacet
facet normal -1.0 0.0 0.0
outer loop
vertex 0.0 0.7699999999999999 0.4794
vertex 0.0 0.0 0.0
vertex 0.0 0.0 0.4794
endloop
endfacet
facet normal -1.0 0.0 0.0
outer loop
vertex 0.0 0.0 0.0
vertex 0.0 0.7699999999999999 0.4794
vertex 0.0 0.7699999999999999 0.0
endloop
endfacet
endsolid test
